<svg width="118" height="16" viewBox="0 0 118 16" fill="none" xmlns="http://www.w3.org/2000/svg">
<path d="M8.93088 1.41659L10.2291 4.01313C10.4062 4.36721 10.8783 4.72128 11.2717 4.78029L13.6223 5.17371C15.1272 5.42943 15.4812 6.51132 14.3993 7.59321L12.57 9.43242C12.2651 9.73732 12.088 10.3373 12.1864 10.77L12.7077 13.042C13.1207 14.832 12.1667 15.5304 10.5832 14.596L8.3801 13.2879C7.97684 13.0518 7.32771 13.0518 6.92446 13.2879L4.7115 14.5862C3.12801 15.5205 2.17397 14.8222 2.58706 13.0322L3.10834 10.7602C3.20669 10.3373 3.02965 9.73732 2.72476 9.42259L0.905211 7.60304C-0.17668 6.52115 0.177394 5.42943 1.68221 5.18354L4.03286 4.79013C4.42628 4.72128 4.89837 4.37704 5.07541 4.02297L6.37368 1.42643C7.07199 0.0101353 8.23256 0.0101352 8.93088 1.41659Z" fill="#ACACAC"/>
<path d="M34.4989 1.41659L35.7972 4.01313C35.9742 4.36721 36.4463 4.72128 36.8398 4.78029L39.1904 5.17371C40.6952 5.42943 41.0493 6.51132 39.9674 7.59321L38.138 9.43242C37.8331 9.73732 37.6561 10.3373 37.7544 10.77L38.2757 13.042C38.6888 14.832 37.7348 15.5304 36.1513 14.596L33.9481 13.2879C33.5449 13.0518 32.8958 13.0518 32.4925 13.2879L30.2796 14.5862C28.6961 15.5205 27.742 14.8222 28.1551 13.0322L28.6764 10.7602C28.7747 10.3373 28.5977 9.73732 28.2928 9.42259L26.4733 7.60304C25.3914 6.52115 25.7454 5.42943 27.2503 5.18354L29.6009 4.79013C29.9943 4.72128 30.4664 4.37704 30.6435 4.02297L31.9417 1.42643C32.64 0.0101353 33.8006 0.0101352 34.4989 1.41659Z" fill="#ACACAC"/>
<path d="M60.067 1.41659L61.3653 4.01313C61.5423 4.36721 62.0144 4.72128 62.4078 4.78029L64.7585 5.17371C66.2633 5.42943 66.6174 6.51132 65.5355 7.59321L63.7061 9.43242C63.4012 9.73732 63.2242 10.3373 63.3225 10.77L63.8438 13.042C64.2569 14.832 63.3028 15.5304 61.7193 14.596L59.5162 13.2879C59.113 13.0518 58.4638 13.0518 58.0606 13.2879L55.8476 14.5862C54.2641 15.5205 53.3101 14.8222 53.7232 13.0322L54.2445 10.7602C54.3428 10.3373 54.1658 9.73732 53.8609 9.42259L52.0413 7.60304C50.9594 6.52115 51.3135 5.42943 52.8183 5.18354L55.169 4.79013C55.5624 4.72128 56.0345 4.37704 56.2115 4.02297L57.5098 1.42643C58.2081 0.0101353 59.3687 0.0101352 60.067 1.41659Z" fill="#ACACAC"/>
<path d="M85.6351 1.41659L86.9334 4.01313C87.1104 4.36721 87.5825 4.72128 87.9759 4.78029L90.3266 5.17371C91.8314 5.42943 92.1854 6.51132 91.1036 7.59321L89.2742 9.43242C88.9693 9.73732 88.7922 10.3373 88.8906 10.77L89.4119 13.042C89.825 14.832 88.8709 15.5304 87.2874 14.596L85.0843 13.2879C84.6811 13.0518 84.0319 13.0518 83.6287 13.2879L81.4157 14.5862C79.8322 15.5205 78.8782 14.8222 79.2913 13.0322L79.8125 10.7602C79.9109 10.3373 79.7339 9.73732 79.429 9.42259L77.6094 7.60304C76.5275 6.52115 76.8816 5.42943 78.3864 5.18354L80.7371 4.79013C81.1305 4.72128 81.6026 4.37704 81.7796 4.02297L83.0779 1.42643C83.7762 0.0101353 84.9368 0.0101352 85.6351 1.41659Z" fill="#ACACAC"/>
<path d="M111.203 1.41659L112.501 4.01313C112.678 4.36721 113.151 4.72128 113.544 4.78029L115.895 5.17371C117.399 5.42943 117.754 6.51132 116.672 7.59321L114.842 9.43242C114.537 9.73732 114.36 10.3373 114.459 10.77L114.98 13.042C115.393 14.832 114.439 15.5304 112.856 14.596L110.652 13.2879C110.249 13.0518 109.6 13.0518 109.197 13.2879L106.984 14.5862C105.4 15.5205 104.446 14.8222 104.859 13.0322L105.381 10.7602C105.479 10.3373 105.302 9.73732 104.997 9.42259L103.178 7.60304C102.096 6.52115 102.45 5.42943 103.954 5.18354L106.305 4.79013C106.699 4.72128 107.171 4.37704 107.348 4.02297L108.646 1.42643C109.344 0.0101353 110.505 0.0101352 111.203 1.41659Z" fill="#ACACAC"/>
</svg>
